solid OpenSCAD_Model
  facet normal 1 0 0
    outer loop
      vertex 2 9.5 5
      vertex 2 -1.54894 2.80902
      vertex 2 9.5 0
    endloop
  endfacet
  facet normal 1 0 0
    outer loop
      vertex 2 9.5 5
      vertex 2 -2.5 3.5
      vertex 2 -1.54894 2.80902
    endloop
  endfacet
  facet normal 1 0 0
    outer loop
      vertex 2 -2.5 3.5
      vertex 2 -14.5 5
      vertex 2 -3.45106 2.80902
    endloop
  endfacet
  facet normal 1 -0 0
    outer loop
      vertex 2 -14.5 5
      vertex 2 -2.5 3.5
      vertex 2 9.5 5
    endloop
  endfacet
  facet normal 1 -0 0
    outer loop
      vertex 2 -1.91221 1.69098
      vertex 2 9.5 0
      vertex 2 -1.54894 2.80902
    endloop
  endfacet
  facet normal 1 -0 0
    outer loop
      vertex 2 -3.08778 1.69098
      vertex 2 9.5 0
      vertex 2 -1.91221 1.69098
    endloop
  endfacet
  facet normal 1 0 0
    outer loop
      vertex 2 -14.5 0
      vertex 2 -3.45106 2.80902
      vertex 2 -14.5 5
    endloop
  endfacet
  facet normal 1 0 0
    outer loop
      vertex 2 -3.08778 1.69098
      vertex 2 -14.5 0
      vertex 2 9.5 0
    endloop
  endfacet
  facet normal 1 0 0
    outer loop
      vertex 2 -3.45106 2.80902
      vertex 2 -14.5 0
      vertex 2 -3.08778 1.69098
    endloop
  endfacet
  facet normal 1 0 0
    outer loop
      vertex 2 10.5 10
      vertex 2 9.5 5
      vertex 2 10.5 5
    endloop
  endfacet
  facet normal 1 0 0
    outer loop
      vertex 2 10.5 10
      vertex 2 -1.54894 7.80902
      vertex 2 9.5 5
    endloop
  endfacet
  facet normal 1 0 0
    outer loop
      vertex 2 10.5 10
      vertex 2 -2.5 8.5
      vertex 2 -1.54894 7.80902
    endloop
  endfacet
  facet normal 1 0 0
    outer loop
      vertex 2 -15.5 10
      vertex 2 -3.45106 7.80902
      vertex 2 -2.5 8.5
    endloop
  endfacet
  facet normal 1 -0 0
    outer loop
      vertex 2 -15.5 10
      vertex 2 -2.5 8.5
      vertex 2 10.5 10
    endloop
  endfacet
  facet normal 1 0 0
    outer loop
      vertex 2 -3.45106 7.80902
      vertex 2 -15.5 10
      vertex 2 -14.5 5
    endloop
  endfacet
  facet normal 1 0 0
    outer loop
      vertex 2 -14.5 5
      vertex 2 -15.5 10
      vertex 2 -15.5 5
    endloop
  endfacet
  facet normal 1 -0 0
    outer loop
      vertex 2 -1.91221 6.69098
      vertex 2 9.5 5
      vertex 2 -1.54894 7.80902
    endloop
  endfacet
  facet normal 1 -0 0
    outer loop
      vertex 2 -3.08778 6.69098
      vertex 2 9.5 5
      vertex 2 -1.91221 6.69098
    endloop
  endfacet
  facet normal 1 0 0
    outer loop
      vertex 2 -3.08778 6.69098
      vertex 2 -14.5 5
      vertex 2 9.5 5
    endloop
  endfacet
  facet normal 1 0 0
    outer loop
      vertex 2 -14.5 5
      vertex 2 -3.08778 6.69098
      vertex 2 -3.45106 7.80902
    endloop
  endfacet
  facet normal 0 0 -1
    outer loop
      vertex 17 -19.5 0
      vertex 11 -16.05 0
      vertex 17 -14.5 0
    endloop
  endfacet
  facet normal 0 0 -1
    outer loop
      vertex 17 -19.5 0
      vertex 10.309 -17.0011 0
      vertex 11 -16.05 0
    endloop
  endfacet
  facet normal 0 0 -1
    outer loop
      vertex 0 -19.5 0
      vertex 10.309 -17.0011 0
      vertex 17 -19.5 0
    endloop
  endfacet
  facet normal 0 0 -1
    outer loop
      vertex 9.19098 -16.6378 0
      vertex 2 -14.5 0
      vertex 9.19098 -15.4622 0
    endloop
  endfacet
  facet normal -0 0 -1
    outer loop
      vertex 10.309 -17.0011 0
      vertex 0 -19.5 0
      vertex 9.19098 -16.6378 0
    endloop
  endfacet
  facet normal -0 0 -1
    outer loop
      vertex 2 -14.5 0
      vertex 0 -19.5 0
      vertex 2 9.5 0
    endloop
  endfacet
  facet normal -0 0 -1
    outer loop
      vertex 9.19098 -16.6378 0
      vertex 0 -19.5 0
      vertex 2 -14.5 0
    endloop
  endfacet
  facet normal 0 0 -1
    outer loop
      vertex 10.309 -15.0989 0
      vertex 17 -14.5 0
      vertex 11 -16.05 0
    endloop
  endfacet
  facet normal 0 0 -1
    outer loop
      vertex 10.309 -15.0989 0
      vertex 2 -14.5 0
      vertex 17 -14.5 0
    endloop
  endfacet
  facet normal 0 0 -1
    outer loop
      vertex 2 -14.5 0
      vertex 10.309 -15.0989 0
      vertex 9.19098 -15.4622 0
    endloop
  endfacet
  facet normal 0 0 -1
    outer loop
      vertex 17 9.5 0
      vertex 11 11.05 0
      vertex 17 14.5 0
    endloop
  endfacet
  facet normal 0 0 -1
    outer loop
      vertex 17 9.5 0
      vertex 10.309 10.0989 0
      vertex 11 11.05 0
    endloop
  endfacet
  facet normal -0 0 -1
    outer loop
      vertex 9.19098 10.4622 0
      vertex 2 9.5 0
      vertex 9.19098 11.6378 0
    endloop
  endfacet
  facet normal -0 0 -1
    outer loop
      vertex 10.309 10.0989 0
      vertex 2 9.5 0
      vertex 9.19098 10.4622 0
    endloop
  endfacet
  facet normal 0 0 -1
    outer loop
      vertex 2 9.5 0
      vertex 10.309 10.0989 0
      vertex 17 9.5 0
    endloop
  endfacet
  facet normal 0 0 -1
    outer loop
      vertex 10.309 12.0011 0
      vertex 17 14.5 0
      vertex 11 11.05 0
    endloop
  endfacet
  facet normal 0 0 -1
    outer loop
      vertex 0 14.5 0
      vertex 10.309 12.0011 0
      vertex 9.19098 11.6378 0
    endloop
  endfacet
  facet normal 0 0 -1
    outer loop
      vertex 0 14.5 0
      vertex 9.19098 11.6378 0
      vertex 2 9.5 0
    endloop
  endfacet
  facet normal 0 0 -1
    outer loop
      vertex 10.309 12.0011 0
      vertex 0 14.5 0
      vertex 17 14.5 0
    endloop
  endfacet
  facet normal 0 0 -1
    outer loop
      vertex 0 14.5 0
      vertex 2 9.5 0
      vertex 0 -19.5 0
    endloop
  endfacet
  facet normal 0 0 1
    outer loop
      vertex 17 14.5 10
      vertex 2 10.5 10
      vertex 17 10.5 10
    endloop
  endfacet
  facet normal 0 0 1
    outer loop
      vertex 2 10.5 10
      vertex 0 14.5 10
      vertex 2 -15.5 10
    endloop
  endfacet
  facet normal -0 0 1
    outer loop
      vertex 0 14.5 10
      vertex 2 10.5 10
      vertex 17 14.5 10
    endloop
  endfacet
  facet normal -0 0 1
    outer loop
      vertex 2 -15.5 10
      vertex 17 -19.5 10
      vertex 17 -15.5 10
    endloop
  endfacet
  facet normal 0 0 1
    outer loop
      vertex 2 -15.5 10
      vertex 0 -19.5 10
      vertex 17 -19.5 10
    endloop
  endfacet
  facet normal 0 0 1
    outer loop
      vertex 0 -19.5 10
      vertex 2 -15.5 10
      vertex 0 14.5 10
    endloop
  endfacet
  facet normal -1 0 0
    outer loop
      vertex 0 -1.54894 2.80902
      vertex 0 -1.91221 6.69098
      vertex 0 -1.54894 7.80902
    endloop
  endfacet
  facet normal -1 0 0
    outer loop
      vertex 0 -2.5 3.5
      vertex 0 -1.91221 6.69098
      vertex 0 -1.54894 2.80902
    endloop
  endfacet
  facet normal -1 0 0
    outer loop
      vertex 0 -2.5 3.5
      vertex 0 -3.08778 6.69098
      vertex 0 -1.91221 6.69098
    endloop
  endfacet
  facet normal -1 0 0
    outer loop
      vertex 0 -3.45106 2.80902
      vertex 0 -3.08778 6.69098
      vertex 0 -2.5 3.5
    endloop
  endfacet
  facet normal -1 -0 0
    outer loop
      vertex 0 -3.08778 6.69098
      vertex 0 -3.45106 2.80902
      vertex 0 -3.45106 7.80902
    endloop
  endfacet
  facet normal -1 0 0
    outer loop
      vertex 0 14.5 0
      vertex 0 -1.54894 2.80902
      vertex 0 14.5 10
    endloop
  endfacet
  facet normal -1 0 0
    outer loop
      vertex 0 14.5 0
      vertex 0 -1.91221 1.69098
      vertex 0 -1.54894 2.80902
    endloop
  endfacet
  facet normal -1 0 0
    outer loop
      vertex 0 14.5 0
      vertex 0 -3.08778 1.69098
      vertex 0 -1.91221 1.69098
    endloop
  endfacet
  facet normal -1 0 0
    outer loop
      vertex 0 -19.5 10
      vertex 0 -3.45106 2.80902
      vertex 0 -19.5 0
    endloop
  endfacet
  facet normal -1 -0 0
    outer loop
      vertex 0 -3.08778 1.69098
      vertex 0 -19.5 0
      vertex 0 -3.45106 2.80902
    endloop
  endfacet
  facet normal -1 0 0
    outer loop
      vertex 0 -19.5 0
      vertex 0 -3.08778 1.69098
      vertex 0 14.5 0
    endloop
  endfacet
  facet normal -1 0 0
    outer loop
      vertex 0 -1.54894 7.80902
      vertex 0 14.5 10
      vertex 0 -1.54894 2.80902
    endloop
  endfacet
  facet normal -1 0 0
    outer loop
      vertex 0 -2.5 8.5
      vertex 0 14.5 10
      vertex 0 -1.54894 7.80902
    endloop
  endfacet
  facet normal -1 0 0
    outer loop
      vertex 0 -3.45106 2.80902
      vertex 0 -19.5 10
      vertex 0 -3.45106 7.80902
    endloop
  endfacet
  facet normal -1 0 0
    outer loop
      vertex 0 -2.5 8.5
      vertex 0 -19.5 10
      vertex 0 14.5 10
    endloop
  endfacet
  facet normal -1 0 0
    outer loop
      vertex 0 -3.45106 7.80902
      vertex 0 -19.5 10
      vertex 0 -2.5 8.5
    endloop
  endfacet
  facet normal 0 -1 0
    outer loop
      vertex 0 -19.5 0
      vertex 17 -19.5 10
      vertex 0 -19.5 10
    endloop
  endfacet
  facet normal 0 -1 -0
    outer loop
      vertex 17 -19.5 10
      vertex 0 -19.5 0
      vertex 17 -19.5 0
    endloop
  endfacet
  facet normal 0 1 -0
    outer loop
      vertex 17 14.5 0
      vertex 0 14.5 10
      vertex 17 14.5 10
    endloop
  endfacet
  facet normal 0 1 0
    outer loop
      vertex 0 14.5 10
      vertex 17 14.5 0
      vertex 0 14.5 0
    endloop
  endfacet
  facet normal 1 0 0
    outer loop
      vertex 17 -15.5 10
      vertex 17 -19.5 10
      vertex 17 -15.5 5
    endloop
  endfacet
  facet normal 1 -0 0
    outer loop
      vertex 17 -15.5 5
      vertex 17 -14.5 0
      vertex 17 -14.5 5
    endloop
  endfacet
  facet normal 1 0 0
    outer loop
      vertex 17 -19.5 0
      vertex 17 -15.5 5
      vertex 17 -19.5 10
    endloop
  endfacet
  facet normal 1 0 0
    outer loop
      vertex 17 -15.5 5
      vertex 17 -19.5 0
      vertex 17 -14.5 0
    endloop
  endfacet
  facet normal 0 1 -0
    outer loop
      vertex 17 -14.5 0
      vertex 2 -14.5 5
      vertex 17 -14.5 5
    endloop
  endfacet
  facet normal 0 1 0
    outer loop
      vertex 2 -14.5 5
      vertex 17 -14.5 0
      vertex 2 -14.5 0
    endloop
  endfacet
  facet normal 1 0 0
    outer loop
      vertex 17 10.5 5
      vertex 17 14.5 10
      vertex 17 10.5 10
    endloop
  endfacet
  facet normal 1 0 0
    outer loop
      vertex 17 14.5 10
      vertex 17 10.5 5
      vertex 17 14.5 0
    endloop
  endfacet
  facet normal 1 0 0
    outer loop
      vertex 17 9.5 0
      vertex 17 10.5 5
      vertex 17 9.5 5
    endloop
  endfacet
  facet normal 1 0 0
    outer loop
      vertex 17 10.5 5
      vertex 17 9.5 0
      vertex 17 14.5 0
    endloop
  endfacet
  facet normal 0 -1 0
    outer loop
      vertex 2 9.5 0
      vertex 17 9.5 5
      vertex 2 9.5 5
    endloop
  endfacet
  facet normal 0 -1 -0
    outer loop
      vertex 17 9.5 5
      vertex 2 9.5 0
      vertex 17 9.5 0
    endloop
  endfacet
  facet normal 0.309043 -0.951048 0
    outer loop
      vertex 9.19098 11.6378 0
      vertex 10.309 12.0011 3.5
      vertex 9.19098 11.6378 3.5
    endloop
  endfacet
  facet normal 0.309043 -0.951048 0
    outer loop
      vertex 10.309 12.0011 3.5
      vertex 9.19098 11.6378 0
      vertex 10.309 12.0011 0
    endloop
  endfacet
  facet normal 0.309043 0.951048 -0
    outer loop
      vertex 10.309 10.0989 0
      vertex 9.19098 10.4622 3.5
      vertex 10.309 10.0989 3.5
    endloop
  endfacet
  facet normal 0.309043 0.951048 0
    outer loop
      vertex 9.19098 10.4622 3.5
      vertex 10.309 10.0989 0
      vertex 9.19098 10.4622 0
    endloop
  endfacet
  facet normal -0.809023 0.587777 0
    outer loop
      vertex 10.309 10.0989 0
      vertex 11 11.05 3.5
      vertex 11 11.05 0
    endloop
  endfacet
  facet normal -0.809023 0.587777 0
    outer loop
      vertex 11 11.05 3.5
      vertex 10.309 10.0989 0
      vertex 10.309 10.0989 3.5
    endloop
  endfacet
  facet normal 1 -0 0
    outer loop
      vertex 9.19098 10.4622 3.5
      vertex 9.19098 11.6378 0
      vertex 9.19098 11.6378 3.5
    endloop
  endfacet
  facet normal 1 0 0
    outer loop
      vertex 9.19098 11.6378 0
      vertex 9.19098 10.4622 3.5
      vertex 9.19098 10.4622 0
    endloop
  endfacet
  facet normal -0.809023 -0.587777 0
    outer loop
      vertex 11 11.05 0
      vertex 10.309 12.0011 3.5
      vertex 10.309 12.0011 0
    endloop
  endfacet
  facet normal -0.809023 -0.587777 0
    outer loop
      vertex 10.309 12.0011 3.5
      vertex 11 11.05 0
      vertex 11 11.05 3.5
    endloop
  endfacet
  facet normal 0 0 -1
    outer loop
      vertex 10.309 10.0989 3.5
      vertex 10.309 12.0011 3.5
      vertex 11 11.05 3.5
    endloop
  endfacet
  facet normal 0 0 -1
    outer loop
      vertex 9.19098 10.4622 3.5
      vertex 10.309 12.0011 3.5
      vertex 10.309 10.0989 3.5
    endloop
  endfacet
  facet normal 0 0 -1
    outer loop
      vertex 10.309 12.0011 3.5
      vertex 9.19098 10.4622 3.5
      vertex 9.19098 11.6378 3.5
    endloop
  endfacet
  facet normal 0.309043 -0.951048 0
    outer loop
      vertex 9.19098 -15.4622 0
      vertex 10.309 -15.0989 3.5
      vertex 9.19098 -15.4622 3.5
    endloop
  endfacet
  facet normal 0.309043 -0.951048 0
    outer loop
      vertex 10.309 -15.0989 3.5
      vertex 9.19098 -15.4622 0
      vertex 10.309 -15.0989 0
    endloop
  endfacet
  facet normal 0.309043 0.951048 -0
    outer loop
      vertex 10.309 -17.0011 0
      vertex 9.19098 -16.6378 3.5
      vertex 10.309 -17.0011 3.5
    endloop
  endfacet
  facet normal 0.309043 0.951048 0
    outer loop
      vertex 9.19098 -16.6378 3.5
      vertex 10.309 -17.0011 0
      vertex 9.19098 -16.6378 0
    endloop
  endfacet
  facet normal -0.809023 0.587777 0
    outer loop
      vertex 10.309 -17.0011 0
      vertex 11 -16.05 3.5
      vertex 11 -16.05 0
    endloop
  endfacet
  facet normal -0.809023 0.587777 0
    outer loop
      vertex 11 -16.05 3.5
      vertex 10.309 -17.0011 0
      vertex 10.309 -17.0011 3.5
    endloop
  endfacet
  facet normal 1 -0 0
    outer loop
      vertex 9.19098 -16.6378 3.5
      vertex 9.19098 -15.4622 0
      vertex 9.19098 -15.4622 3.5
    endloop
  endfacet
  facet normal 1 0 0
    outer loop
      vertex 9.19098 -15.4622 0
      vertex 9.19098 -16.6378 3.5
      vertex 9.19098 -16.6378 0
    endloop
  endfacet
  facet normal -0.809023 -0.587777 0
    outer loop
      vertex 11 -16.05 0
      vertex 10.309 -15.0989 3.5
      vertex 10.309 -15.0989 0
    endloop
  endfacet
  facet normal -0.809023 -0.587777 0
    outer loop
      vertex 10.309 -15.0989 3.5
      vertex 11 -16.05 0
      vertex 11 -16.05 3.5
    endloop
  endfacet
  facet normal 0 0 -1
    outer loop
      vertex 10.309 -17.0011 3.5
      vertex 10.309 -15.0989 3.5
      vertex 11 -16.05 3.5
    endloop
  endfacet
  facet normal 0 0 -1
    outer loop
      vertex 9.19098 -16.6378 3.5
      vertex 10.309 -15.0989 3.5
      vertex 10.309 -17.0011 3.5
    endloop
  endfacet
  facet normal 0 0 -1
    outer loop
      vertex 10.309 -15.0989 3.5
      vertex 9.19098 -16.6378 3.5
      vertex 9.19098 -15.4622 3.5
    endloop
  endfacet
  facet normal 0 0.951055 0.309022
    outer loop
      vertex 2 -3.08778 6.69098
      vertex 0 -3.45106 7.80902
      vertex 2 -3.45106 7.80902
    endloop
  endfacet
  facet normal 0 0.951055 0.309022
    outer loop
      vertex 0 -3.45106 7.80902
      vertex 2 -3.08778 6.69098
      vertex 0 -3.08778 6.69098
    endloop
  endfacet
  facet normal -0 0 1
    outer loop
      vertex 0 -1.91221 6.69098
      vertex 2 -3.08778 6.69098
      vertex 2 -1.91221 6.69098
    endloop
  endfacet
  facet normal 0 0 1
    outer loop
      vertex 2 -3.08778 6.69098
      vertex 0 -1.91221 6.69098
      vertex 0 -3.08778 6.69098
    endloop
  endfacet
  facet normal 0 -0.951057 0.309015
    outer loop
      vertex 0 -1.91221 6.69098
      vertex 2 -1.54894 7.80902
      vertex 0 -1.54894 7.80902
    endloop
  endfacet
  facet normal 0 -0.951057 0.309015
    outer loop
      vertex 2 -1.54894 7.80902
      vertex 0 -1.91221 6.69098
      vertex 2 -1.91221 6.69098
    endloop
  endfacet
  facet normal 0 0.587782 -0.809019
    outer loop
      vertex 0 -3.45106 7.80902
      vertex 2 -2.5 8.5
      vertex 2 -3.45106 7.80902
    endloop
  endfacet
  facet normal 0 0.587782 -0.809019
    outer loop
      vertex 2 -2.5 8.5
      vertex 0 -3.45106 7.80902
      vertex 0 -2.5 8.5
    endloop
  endfacet
  facet normal 0 -0.587782 -0.809019
    outer loop
      vertex 0 -2.5 8.5
      vertex 2 -1.54894 7.80902
      vertex 2 -2.5 8.5
    endloop
  endfacet
  facet normal -0 -0.587782 -0.809019
    outer loop
      vertex 2 -1.54894 7.80902
      vertex 0 -2.5 8.5
      vertex 0 -1.54894 7.80902
    endloop
  endfacet
  facet normal 0 0.951055 0.309022
    outer loop
      vertex 2 -3.08778 1.69098
      vertex 0 -3.45106 2.80902
      vertex 2 -3.45106 2.80902
    endloop
  endfacet
  facet normal 0 0.951055 0.309022
    outer loop
      vertex 0 -3.45106 2.80902
      vertex 2 -3.08778 1.69098
      vertex 0 -3.08778 1.69098
    endloop
  endfacet
  facet normal -0 0 1
    outer loop
      vertex 0 -1.91221 1.69098
      vertex 2 -3.08778 1.69098
      vertex 2 -1.91221 1.69098
    endloop
  endfacet
  facet normal 0 0 1
    outer loop
      vertex 2 -3.08778 1.69098
      vertex 0 -1.91221 1.69098
      vertex 0 -3.08778 1.69098
    endloop
  endfacet
  facet normal 0 -0.951057 0.309015
    outer loop
      vertex 0 -1.91221 1.69098
      vertex 2 -1.54894 2.80902
      vertex 0 -1.54894 2.80902
    endloop
  endfacet
  facet normal 0 -0.951057 0.309015
    outer loop
      vertex 2 -1.54894 2.80902
      vertex 0 -1.91221 1.69098
      vertex 2 -1.91221 1.69098
    endloop
  endfacet
  facet normal 0 0.587782 -0.809019
    outer loop
      vertex 0 -3.45106 2.80902
      vertex 2 -2.5 3.5
      vertex 2 -3.45106 2.80902
    endloop
  endfacet
  facet normal 0 0.587782 -0.809019
    outer loop
      vertex 2 -2.5 3.5
      vertex 0 -3.45106 2.80902
      vertex 0 -2.5 3.5
    endloop
  endfacet
  facet normal 0 -0.587782 -0.809019
    outer loop
      vertex 0 -2.5 3.5
      vertex 2 -1.54894 2.80902
      vertex 2 -2.5 3.5
    endloop
  endfacet
  facet normal -0 -0.587782 -0.809019
    outer loop
      vertex 2 -1.54894 2.80902
      vertex 0 -2.5 3.5
      vertex 0 -1.54894 2.80902
    endloop
  endfacet
  facet normal -0 0 1
    outer loop
      vertex 2 -14.5 5
      vertex 17 -15.5 5
      vertex 17 -14.5 5
    endloop
  endfacet
  facet normal 0 0 1
    outer loop
      vertex 17 -15.5 5
      vertex 2 -14.5 5
      vertex 2 -15.5 5
    endloop
  endfacet
  facet normal -0 0 1
    outer loop
      vertex 2 10.5 5
      vertex 17 9.5 5
      vertex 17 10.5 5
    endloop
  endfacet
  facet normal 0 0 1
    outer loop
      vertex 17 9.5 5
      vertex 2 10.5 5
      vertex 2 9.5 5
    endloop
  endfacet
  facet normal 0 1 -0
    outer loop
      vertex 17 -15.5 5
      vertex 2 -15.5 10
      vertex 17 -15.5 10
    endloop
  endfacet
  facet normal 0 1 0
    outer loop
      vertex 2 -15.5 10
      vertex 17 -15.5 5
      vertex 2 -15.5 5
    endloop
  endfacet
  facet normal 0 -1 0
    outer loop
      vertex 2 10.5 5
      vertex 17 10.5 10
      vertex 2 10.5 10
    endloop
  endfacet
  facet normal 0 -1 -0
    outer loop
      vertex 17 10.5 10
      vertex 2 10.5 5
      vertex 17 10.5 5
    endloop
  endfacet
endsolid OpenSCAD_Model
