solid OpenSCAD_Model
  facet normal 1 0 0
    outer loop
      vertex 2 3.45106 7.19098
      vertex 2 3.08778 3.30902
      vertex 2 3.45106 2.19098
    endloop
  endfacet
  facet normal 1 -0 0
    outer loop
      vertex 2 2.5 6.5
      vertex 2 3.08778 3.30902
      vertex 2 3.45106 7.19098
    endloop
  endfacet
  facet normal 1 0 0
    outer loop
      vertex 2 2.5 6.5
      vertex 2 1.91221 3.30902
      vertex 2 3.08778 3.30902
    endloop
  endfacet
  facet normal 1 0 0
    outer loop
      vertex 2 1.54894 7.19098
      vertex 2 1.91221 3.30902
      vertex 2 2.5 6.5
    endloop
  endfacet
  facet normal 1 0 0
    outer loop
      vertex 2 1.91221 3.30902
      vertex 2 1.54894 7.19098
      vertex 2 1.54894 2.19098
    endloop
  endfacet
  facet normal 1 0 0
    outer loop
      vertex 2 14.9 10
      vertex 2 3.45106 7.19098
      vertex 2 14.9 0
    endloop
  endfacet
  facet normal 1 0 0
    outer loop
      vertex 2 14.9 10
      vertex 2 3.08778 8.30902
      vertex 2 3.45106 7.19098
    endloop
  endfacet
  facet normal 1 0 0
    outer loop
      vertex 2 14.9 10
      vertex 2 1.91221 8.30902
      vertex 2 3.08778 8.30902
    endloop
  endfacet
  facet normal 1 0 0
    outer loop
      vertex 2 -9.9 0
      vertex 2 1.54894 7.19098
      vertex 2 -9.9 10
    endloop
  endfacet
  facet normal 1 0 0
    outer loop
      vertex 2 1.91221 8.30902
      vertex 2 -9.9 10
      vertex 2 1.54894 7.19098
    endloop
  endfacet
  facet normal 1 -0 0
    outer loop
      vertex 2 -9.9 10
      vertex 2 1.91221 8.30902
      vertex 2 14.9 10
    endloop
  endfacet
  facet normal 1 -0 0
    outer loop
      vertex 2 3.45106 2.19098
      vertex 2 14.9 0
      vertex 2 3.45106 7.19098
    endloop
  endfacet
  facet normal 1 -0 0
    outer loop
      vertex 2 2.5 1.5
      vertex 2 14.9 0
      vertex 2 3.45106 2.19098
    endloop
  endfacet
  facet normal 1 0 0
    outer loop
      vertex 2 1.54894 7.19098
      vertex 2 -9.9 0
      vertex 2 1.54894 2.19098
    endloop
  endfacet
  facet normal 1 0 0
    outer loop
      vertex 2 2.5 1.5
      vertex 2 -9.9 0
      vertex 2 14.9 0
    endloop
  endfacet
  facet normal 1 0 0
    outer loop
      vertex 2 1.54894 2.19098
      vertex 2 -9.9 0
      vertex 2 2.5 1.5
    endloop
  endfacet
  facet normal 0 0 1
    outer loop
      vertex 17 19.9 10
      vertex 11 16.05 10
      vertex 17 14.9 10
    endloop
  endfacet
  facet normal 0 0 1
    outer loop
      vertex 17 19.9 10
      vertex 10.309 17.0011 10
      vertex 11 16.05 10
    endloop
  endfacet
  facet normal -0 0 1
    outer loop
      vertex 0 19.9 10
      vertex 10.309 17.0011 10
      vertex 17 19.9 10
    endloop
  endfacet
  facet normal 0 0 1
    outer loop
      vertex 9.19098 16.6378 10
      vertex 2 14.9 10
      vertex 9.19098 15.4622 10
    endloop
  endfacet
  facet normal 0 0 1
    outer loop
      vertex 10.309 17.0011 10
      vertex 0 19.9 10
      vertex 9.19098 16.6378 10
    endloop
  endfacet
  facet normal 0 0 1
    outer loop
      vertex 2 14.9 10
      vertex 0 19.9 10
      vertex 2 -9.9 10
    endloop
  endfacet
  facet normal 0 0 1
    outer loop
      vertex 9.19098 16.6378 10
      vertex 0 19.9 10
      vertex 2 14.9 10
    endloop
  endfacet
  facet normal -0 0 1
    outer loop
      vertex 10.309 15.0989 10
      vertex 17 14.9 10
      vertex 11 16.05 10
    endloop
  endfacet
  facet normal 0 0 1
    outer loop
      vertex 10.309 15.0989 10
      vertex 2 14.9 10
      vertex 17 14.9 10
    endloop
  endfacet
  facet normal 0 0 1
    outer loop
      vertex 2 14.9 10
      vertex 10.309 15.0989 10
      vertex 9.19098 15.4622 10
    endloop
  endfacet
  facet normal 0 0 1
    outer loop
      vertex 17 -9.9 10
      vertex 11 -11.05 10
      vertex 17 -14.9 10
    endloop
  endfacet
  facet normal 0 0 1
    outer loop
      vertex 17 -9.9 10
      vertex 10.309 -10.0989 10
      vertex 11 -11.05 10
    endloop
  endfacet
  facet normal 0 0 1
    outer loop
      vertex 9.19098 -10.4622 10
      vertex 2 -9.9 10
      vertex 9.19098 -11.6378 10
    endloop
  endfacet
  facet normal 0 0 1
    outer loop
      vertex 10.309 -10.0989 10
      vertex 2 -9.9 10
      vertex 9.19098 -10.4622 10
    endloop
  endfacet
  facet normal -0 0 1
    outer loop
      vertex 2 -9.9 10
      vertex 10.309 -10.0989 10
      vertex 17 -9.9 10
    endloop
  endfacet
  facet normal -0 0 1
    outer loop
      vertex 10.309 -12.0011 10
      vertex 17 -14.9 10
      vertex 11 -11.05 10
    endloop
  endfacet
  facet normal 0 0 1
    outer loop
      vertex 0 -14.9 10
      vertex 10.309 -12.0011 10
      vertex 9.19098 -11.6378 10
    endloop
  endfacet
  facet normal 0 0 1
    outer loop
      vertex 0 -14.9 10
      vertex 9.19098 -11.6378 10
      vertex 2 -9.9 10
    endloop
  endfacet
  facet normal 0 0 1
    outer loop
      vertex 10.309 -12.0011 10
      vertex 0 -14.9 10
      vertex 17 -14.9 10
    endloop
  endfacet
  facet normal 0 0 1
    outer loop
      vertex 0 -14.9 10
      vertex 2 -9.9 10
      vertex 0 19.9 10
    endloop
  endfacet
  facet normal 0 0 -1
    outer loop
      vertex 17 -14.9 0
      vertex 11 -11.05 0
      vertex 17 -9.9 0
    endloop
  endfacet
  facet normal 0 0 -1
    outer loop
      vertex 17 -14.9 0
      vertex 10.309 -12.0011 0
      vertex 11 -11.05 0
    endloop
  endfacet
  facet normal 0 0 -1
    outer loop
      vertex 0 -14.9 0
      vertex 10.309 -12.0011 0
      vertex 17 -14.9 0
    endloop
  endfacet
  facet normal 0 0 -1
    outer loop
      vertex 9.19098 -11.6378 0
      vertex 2 -9.9 0
      vertex 9.19098 -10.4622 0
    endloop
  endfacet
  facet normal -0 0 -1
    outer loop
      vertex 10.309 -12.0011 0
      vertex 0 -14.9 0
      vertex 9.19098 -11.6378 0
    endloop
  endfacet
  facet normal -0 0 -1
    outer loop
      vertex 2 -9.9 0
      vertex 0 -14.9 0
      vertex 2 14.9 0
    endloop
  endfacet
  facet normal -0 0 -1
    outer loop
      vertex 9.19098 -11.6378 0
      vertex 0 -14.9 0
      vertex 2 -9.9 0
    endloop
  endfacet
  facet normal 0 0 -1
    outer loop
      vertex 10.309 -10.0989 0
      vertex 17 -9.9 0
      vertex 11 -11.05 0
    endloop
  endfacet
  facet normal 0 0 -1
    outer loop
      vertex 10.309 -10.0989 0
      vertex 2 -9.9 0
      vertex 17 -9.9 0
    endloop
  endfacet
  facet normal 0 0 -1
    outer loop
      vertex 2 -9.9 0
      vertex 10.309 -10.0989 0
      vertex 9.19098 -10.4622 0
    endloop
  endfacet
  facet normal 0 0 -1
    outer loop
      vertex 17 14.9 0
      vertex 11 16.05 0
      vertex 17 19.9 0
    endloop
  endfacet
  facet normal 0 0 -1
    outer loop
      vertex 17 14.9 0
      vertex 10.309 15.0989 0
      vertex 11 16.05 0
    endloop
  endfacet
  facet normal -0 0 -1
    outer loop
      vertex 9.19098 15.4622 0
      vertex 2 14.9 0
      vertex 9.19098 16.6378 0
    endloop
  endfacet
  facet normal -0 0 -1
    outer loop
      vertex 10.309 15.0989 0
      vertex 2 14.9 0
      vertex 9.19098 15.4622 0
    endloop
  endfacet
  facet normal 0 0 -1
    outer loop
      vertex 2 14.9 0
      vertex 10.309 15.0989 0
      vertex 17 14.9 0
    endloop
  endfacet
  facet normal 0 0 -1
    outer loop
      vertex 10.309 17.0011 0
      vertex 17 19.9 0
      vertex 11 16.05 0
    endloop
  endfacet
  facet normal 0 0 -1
    outer loop
      vertex 0 19.9 0
      vertex 10.309 17.0011 0
      vertex 9.19098 16.6378 0
    endloop
  endfacet
  facet normal 0 0 -1
    outer loop
      vertex 0 19.9 0
      vertex 9.19098 16.6378 0
      vertex 2 14.9 0
    endloop
  endfacet
  facet normal 0 0 -1
    outer loop
      vertex 10.309 17.0011 0
      vertex 0 19.9 0
      vertex 17 19.9 0
    endloop
  endfacet
  facet normal 0 0 -1
    outer loop
      vertex 0 19.9 0
      vertex 2 14.9 0
      vertex 0 -14.9 0
    endloop
  endfacet
  facet normal -1 0 0
    outer loop
      vertex 0 3.08778 3.30902
      vertex 0 3.45106 7.19098
      vertex 0 3.45106 2.19098
    endloop
  endfacet
  facet normal -1 0 0
    outer loop
      vertex 0 3.08778 3.30902
      vertex 0 2.5 6.5
      vertex 0 3.45106 7.19098
    endloop
  endfacet
  facet normal -1 0 0
    outer loop
      vertex 0 1.91221 3.30902
      vertex 0 2.5 6.5
      vertex 0 3.08778 3.30902
    endloop
  endfacet
  facet normal -1 0 0
    outer loop
      vertex 0 1.54894 7.19098
      vertex 0 1.91221 3.30902
      vertex 0 1.54894 2.19098
    endloop
  endfacet
  facet normal -1 0 0
    outer loop
      vertex 0 1.91221 3.30902
      vertex 0 1.54894 7.19098
      vertex 0 2.5 6.5
    endloop
  endfacet
  facet normal -1 0 0
    outer loop
      vertex 0 3.45106 7.19098
      vertex 0 19.9 0
      vertex 0 3.45106 2.19098
    endloop
  endfacet
  facet normal -1 0 0
    outer loop
      vertex 0 19.9 0
      vertex 0 2.5 1.5
      vertex 0 3.45106 2.19098
    endloop
  endfacet
  facet normal -1 -0 0
    outer loop
      vertex 0 1.54894 2.19098
      vertex 0 -14.9 0
      vertex 0 1.54894 7.19098
    endloop
  endfacet
  facet normal -1 -0 0
    outer loop
      vertex 0 2.5 1.5
      vertex 0 -14.9 0
      vertex 0 1.54894 2.19098
    endloop
  endfacet
  facet normal -1 0 0
    outer loop
      vertex 0 -14.9 0
      vertex 0 2.5 1.5
      vertex 0 19.9 0
    endloop
  endfacet
  facet normal -1 0 0
    outer loop
      vertex 0 19.9 0
      vertex 0 3.45106 7.19098
      vertex 0 19.9 10
    endloop
  endfacet
  facet normal -1 0 0
    outer loop
      vertex 0 3.08778 8.30902
      vertex 0 19.9 10
      vertex 0 3.45106 7.19098
    endloop
  endfacet
  facet normal -1 0 0
    outer loop
      vertex 0 1.91221 8.30902
      vertex 0 19.9 10
      vertex 0 3.08778 8.30902
    endloop
  endfacet
  facet normal -1 0 0
    outer loop
      vertex 0 -14.9 10
      vertex 0 1.54894 7.19098
      vertex 0 -14.9 0
    endloop
  endfacet
  facet normal -1 0 0
    outer loop
      vertex 0 1.91221 8.30902
      vertex 0 -14.9 10
      vertex 0 19.9 10
    endloop
  endfacet
  facet normal -1 0 0
    outer loop
      vertex 0 1.54894 7.19098
      vertex 0 -14.9 10
      vertex 0 1.91221 8.30902
    endloop
  endfacet
  facet normal 0 1 -0
    outer loop
      vertex 17 19.9 0
      vertex 0 19.9 10
      vertex 17 19.9 10
    endloop
  endfacet
  facet normal 0 1 0
    outer loop
      vertex 0 19.9 10
      vertex 17 19.9 0
      vertex 0 19.9 0
    endloop
  endfacet
  facet normal 0 -1 0
    outer loop
      vertex 0 -14.9 0
      vertex 17 -14.9 10
      vertex 0 -14.9 10
    endloop
  endfacet
  facet normal 0 -1 -0
    outer loop
      vertex 17 -14.9 10
      vertex 0 -14.9 0
      vertex 17 -14.9 0
    endloop
  endfacet
  facet normal 1 -0 0
    outer loop
      vertex 17 14.9 10
      vertex 17 19.9 0
      vertex 17 19.9 10
    endloop
  endfacet
  facet normal 1 0 0
    outer loop
      vertex 17 19.9 0
      vertex 17 14.9 10
      vertex 17 14.9 0
    endloop
  endfacet
  facet normal 0 -1 0
    outer loop
      vertex 2 14.9 0
      vertex 17 14.9 10
      vertex 2 14.9 10
    endloop
  endfacet
  facet normal 0 -1 -0
    outer loop
      vertex 17 14.9 10
      vertex 2 14.9 0
      vertex 17 14.9 0
    endloop
  endfacet
  facet normal 1 -0 0
    outer loop
      vertex 17 -14.9 10
      vertex 17 -9.9 0
      vertex 17 -9.9 10
    endloop
  endfacet
  facet normal 1 0 0
    outer loop
      vertex 17 -9.9 0
      vertex 17 -14.9 10
      vertex 17 -14.9 0
    endloop
  endfacet
  facet normal 0 1 -0
    outer loop
      vertex 17 -9.9 0
      vertex 2 -9.9 10
      vertex 17 -9.9 10
    endloop
  endfacet
  facet normal 0 1 0
    outer loop
      vertex 2 -9.9 10
      vertex 17 -9.9 0
      vertex 2 -9.9 0
    endloop
  endfacet
  facet normal 0.309043 0.951048 -0
    outer loop
      vertex 10.309 -12.0011 0
      vertex 9.19098 -11.6378 10
      vertex 10.309 -12.0011 10
    endloop
  endfacet
  facet normal 0.309043 0.951048 0
    outer loop
      vertex 9.19098 -11.6378 10
      vertex 10.309 -12.0011 0
      vertex 9.19098 -11.6378 0
    endloop
  endfacet
  facet normal 0.309043 -0.951048 0
    outer loop
      vertex 9.19098 -10.4622 0
      vertex 10.309 -10.0989 10
      vertex 9.19098 -10.4622 10
    endloop
  endfacet
  facet normal 0.309043 -0.951048 0
    outer loop
      vertex 10.309 -10.0989 10
      vertex 9.19098 -10.4622 0
      vertex 10.309 -10.0989 0
    endloop
  endfacet
  facet normal -0.809023 -0.587777 0
    outer loop
      vertex 11 -11.05 0
      vertex 10.309 -10.0989 10
      vertex 10.309 -10.0989 0
    endloop
  endfacet
  facet normal -0.809023 -0.587777 0
    outer loop
      vertex 10.309 -10.0989 10
      vertex 11 -11.05 0
      vertex 11 -11.05 10
    endloop
  endfacet
  facet normal 1 -0 0
    outer loop
      vertex 9.19098 -11.6378 10
      vertex 9.19098 -10.4622 0
      vertex 9.19098 -10.4622 10
    endloop
  endfacet
  facet normal 1 0 0
    outer loop
      vertex 9.19098 -10.4622 0
      vertex 9.19098 -11.6378 10
      vertex 9.19098 -11.6378 0
    endloop
  endfacet
  facet normal -0.809023 0.587777 0
    outer loop
      vertex 10.309 -12.0011 0
      vertex 11 -11.05 10
      vertex 11 -11.05 0
    endloop
  endfacet
  facet normal -0.809023 0.587777 0
    outer loop
      vertex 11 -11.05 10
      vertex 10.309 -12.0011 0
      vertex 10.309 -12.0011 10
    endloop
  endfacet
  facet normal 0.309043 0.951048 -0
    outer loop
      vertex 10.309 15.0989 0
      vertex 9.19098 15.4622 10
      vertex 10.309 15.0989 10
    endloop
  endfacet
  facet normal 0.309043 0.951048 0
    outer loop
      vertex 9.19098 15.4622 10
      vertex 10.309 15.0989 0
      vertex 9.19098 15.4622 0
    endloop
  endfacet
  facet normal 0.309043 -0.951048 0
    outer loop
      vertex 9.19098 16.6378 0
      vertex 10.309 17.0011 10
      vertex 9.19098 16.6378 10
    endloop
  endfacet
  facet normal 0.309043 -0.951048 0
    outer loop
      vertex 10.309 17.0011 10
      vertex 9.19098 16.6378 0
      vertex 10.309 17.0011 0
    endloop
  endfacet
  facet normal -0.809023 -0.587777 0
    outer loop
      vertex 11 16.05 0
      vertex 10.309 17.0011 10
      vertex 10.309 17.0011 0
    endloop
  endfacet
  facet normal -0.809023 -0.587777 0
    outer loop
      vertex 10.309 17.0011 10
      vertex 11 16.05 0
      vertex 11 16.05 10
    endloop
  endfacet
  facet normal 1 -0 0
    outer loop
      vertex 9.19098 15.4622 10
      vertex 9.19098 16.6378 0
      vertex 9.19098 16.6378 10
    endloop
  endfacet
  facet normal 1 0 0
    outer loop
      vertex 9.19098 16.6378 0
      vertex 9.19098 15.4622 10
      vertex 9.19098 15.4622 0
    endloop
  endfacet
  facet normal -0.809023 0.587777 0
    outer loop
      vertex 10.309 15.0989 0
      vertex 11 16.05 10
      vertex 11 16.05 0
    endloop
  endfacet
  facet normal -0.809023 0.587777 0
    outer loop
      vertex 11 16.05 10
      vertex 10.309 15.0989 0
      vertex 10.309 15.0989 10
    endloop
  endfacet
  facet normal 0 -0.951055 -0.309022
    outer loop
      vertex 0 3.45106 2.19098
      vertex 2 3.08778 3.30902
      vertex 0 3.08778 3.30902
    endloop
  endfacet
  facet normal 0 -0.951055 -0.309022
    outer loop
      vertex 2 3.08778 3.30902
      vertex 0 3.45106 2.19098
      vertex 2 3.45106 2.19098
    endloop
  endfacet
  facet normal 0 0 -1
    outer loop
      vertex 0 1.91221 3.30902
      vertex 2 3.08778 3.30902
      vertex 2 1.91221 3.30902
    endloop
  endfacet
  facet normal -0 0 -1
    outer loop
      vertex 2 3.08778 3.30902
      vertex 0 1.91221 3.30902
      vertex 0 3.08778 3.30902
    endloop
  endfacet
  facet normal 0 0.951057 -0.309015
    outer loop
      vertex 2 1.54894 2.19098
      vertex 0 1.91221 3.30902
      vertex 2 1.91221 3.30902
    endloop
  endfacet
  facet normal 0 0.951057 -0.309015
    outer loop
      vertex 0 1.91221 3.30902
      vertex 2 1.54894 2.19098
      vertex 0 1.54894 2.19098
    endloop
  endfacet
  facet normal 0 -0.587782 0.809019
    outer loop
      vertex 0 3.45106 2.19098
      vertex 2 2.5 1.5
      vertex 2 3.45106 2.19098
    endloop
  endfacet
  facet normal 0 -0.587782 0.809019
    outer loop
      vertex 2 2.5 1.5
      vertex 0 3.45106 2.19098
      vertex 0 2.5 1.5
    endloop
  endfacet
  facet normal -0 0.587782 0.809019
    outer loop
      vertex 0 2.5 1.5
      vertex 2 1.54894 2.19098
      vertex 2 2.5 1.5
    endloop
  endfacet
  facet normal 0 0.587782 0.809019
    outer loop
      vertex 2 1.54894 2.19098
      vertex 0 2.5 1.5
      vertex 0 1.54894 2.19098
    endloop
  endfacet
  facet normal 0 -0.951055 -0.309022
    outer loop
      vertex 0 3.45106 7.19098
      vertex 2 3.08778 8.30902
      vertex 0 3.08778 8.30902
    endloop
  endfacet
  facet normal 0 -0.951055 -0.309022
    outer loop
      vertex 2 3.08778 8.30902
      vertex 0 3.45106 7.19098
      vertex 2 3.45106 7.19098
    endloop
  endfacet
  facet normal 0 0 -1
    outer loop
      vertex 0 1.91221 8.30902
      vertex 2 3.08778 8.30902
      vertex 2 1.91221 8.30902
    endloop
  endfacet
  facet normal -0 0 -1
    outer loop
      vertex 2 3.08778 8.30902
      vertex 0 1.91221 8.30902
      vertex 0 3.08778 8.30902
    endloop
  endfacet
  facet normal 0 0.951057 -0.309015
    outer loop
      vertex 2 1.54894 7.19098
      vertex 0 1.91221 8.30902
      vertex 2 1.91221 8.30902
    endloop
  endfacet
  facet normal 0 0.951057 -0.309015
    outer loop
      vertex 0 1.91221 8.30902
      vertex 2 1.54894 7.19098
      vertex 0 1.54894 7.19098
    endloop
  endfacet
  facet normal 0 -0.587782 0.809019
    outer loop
      vertex 0 3.45106 7.19098
      vertex 2 2.5 6.5
      vertex 2 3.45106 7.19098
    endloop
  endfacet
  facet normal 0 -0.587782 0.809019
    outer loop
      vertex 2 2.5 6.5
      vertex 0 3.45106 7.19098
      vertex 0 2.5 6.5
    endloop
  endfacet
  facet normal -0 0.587782 0.809019
    outer loop
      vertex 0 2.5 6.5
      vertex 2 1.54894 7.19098
      vertex 2 2.5 6.5
    endloop
  endfacet
  facet normal 0 0.587782 0.809019
    outer loop
      vertex 2 1.54894 7.19098
      vertex 0 2.5 6.5
      vertex 0 1.54894 7.19098
    endloop
  endfacet
endsolid OpenSCAD_Model
